<svg aria-hidden="true" style="position: absolute; width: 0; height: 0; overflow: hidden;" version="1.1" xmlns="http://www.w3.org/2000/svg" xmlns:xlink="http://www.w3.org/1999/xlink">
<defs>
<symbol id="icon-1293388" viewBox="0 0 25 32">
<path d="M11.775 0.028c-1.543 0.145-2.957 0.797-4.060 1.873-0.603 0.588-1.015 1.15-1.365 1.863-0.518 1.055-0.725 2.013-0.692 3.2 0.020 0.728 0.115 1.275 0.33 1.925 0.728 2.185 2.527 3.857 4.755 4.423 1.84 0.467 3.82 0.127 5.39-0.92 0.418-0.28 0.668-0.485 1.055-0.875 1.277-1.283 1.965-2.947 1.962-4.753-0.003-1.098-0.215-2.013-0.7-3.002-0.875-1.78-2.537-3.112-4.463-3.57-0.705-0.17-1.518-0.23-2.213-0.163z"></path>
<path d="M11.662 14.152c-0.857 0.068-1.68 0.235-2.5 0.51-2.62 0.875-4.98 2.855-6.633 5.568-1.492 2.45-2.34 5.285-2.505 8.383-0.040 0.745-0.033 1.055 0.022 1.18 0.393 0.86 3.112 1.615 7.14 1.98 1.792 0.163 3.035 0.215 5.212 0.212 1.662 0 2.227-0.012 3.512-0.085 1.753-0.1 3.532-0.297 4.925-0.55 2.25-0.407 3.642-0.962 3.915-1.558 0.055-0.125 0.063-0.435 0.023-1.18-0.188-3.497-1.262-6.705-3.115-9.305-2.367-3.317-5.77-5.207-9.32-5.18-0.235 0.002-0.54 0.012-0.678 0.025z"></path>
</symbol>
<symbol id="icon-user-plus" viewBox="0 0 32 32">
<path d="M12 23c0-4.726 2.996-8.765 7.189-10.319 0.509-1.142 0.811-2.411 0.811-3.681 0-4.971 0-9-6-9s-6 4.029-6 9c0 3.096 1.797 6.191 4 7.432v1.649c-6.784 0.555-12 3.888-12 7.918h12.416c-0.271-0.954-0.416-1.96-0.416-3z"></path>
<path d="M23 14c-4.971 0-9 4.029-9 9s4.029 9 9 9c4.971 0 9-4.029 9-9s-4.029-9-9-9zM28 24h-4v4h-2v-4h-4v-2h4v-4h2v4h4v2z"></path>
</symbol>
<symbol id="icon-user-minus" viewBox="0 0 32 32">
<path d="M12 23c0-4.726 2.996-8.765 7.189-10.319 0.509-1.142 0.811-2.411 0.811-3.681 0-4.971 0-9-6-9s-6 4.029-6 9c0 3.096 1.797 6.191 4 7.432v1.649c-6.784 0.555-12 3.888-12 7.918h12.416c-0.271-0.954-0.416-1.96-0.416-3z"></path>
<path d="M23 14c-4.971 0-9 4.029-9 9s4.029 9 9 9c4.971 0 9-4.029 9-9s-4.029-9-9-9zM28 24h-10v-2h10v2z"></path>
</symbol>
<symbol id="icon-search1" viewBox="0 0 32 32">
<path d="M31.008 27.231l-7.58-6.447c-0.784-0.705-1.622-1.029-2.299-0.998 1.789-2.096 2.87-4.815 2.87-7.787 0-6.627-5.373-12-12-12s-12 5.373-12 12 5.373 12 12 12c2.972 0 5.691-1.081 7.787-2.87-0.031 0.677 0.293 1.515 0.998 2.299l6.447 7.58c1.104 1.226 2.907 1.33 4.007 0.23s0.997-2.903-0.23-4.007zM12 20c-4.418 0-8-3.582-8-8s3.582-8 8-8 8 3.582 8 8-3.582 8-8 8z"></path>
</symbol>
</defs>
</svg>
